# xmcd
#
# Track frame offsets:
#	150
#	31654
#	66796
#	98644
#	125900
#	156260
#	182223
#	211284
#	222198
#	259178
#	275745
#	292945
#	309041
#
# Disc length: 4354 seconds
#
# Revision: 0
# Processed by: cddbd v1.5.1PL2 Copyright (c) Steve Scherf et al.
# Submitted via: EasyCDDAExtractor 8.2.2.1
#
DISCID=bd11000d
DTITLE=Various Artist - DMC 2006-01-06
DYEAR=2006
DGENRE=Dance
TTITLE0=RON VAN DEN BEUKEN PRES CLOKX - TIBET(VOCAL CLUB)
TTITLE1=DJ MOE VS YOBA - TRANCEFORMATION(DJ DEAN'S MIX)
TTITLE2=GAMBAS PRES JORDAN and BAKER - EXPLODE(EXTENTED MIX)
TTITLE3=RICO BASS VS FUN FUN - HAPPY STATION(CLUB MIX)
TTITLE4=QUEENS - I FEEL IN LOVE(CLUB MIX)
TTITLE5=HI TACK - SAY SAY SAY(WAITING 4 U(TOCADISCO'S NOT GUILTY RMX)
TTITLE6=ANDY BELL - CRAZY(MHC MASTER MIX)
TTITLE7=MICKAEL TURTLE - GHOSTBUSTERS(RADIO)
TTITLE8=DEEPFROST - IN MY BLOOD(HIGHPASS EXT. MIX)
TTITLE9=BRYAN ADAMS - SO FAR SO GOOD(RADIO)
TTITLE10=A-HA - ANALOGUE(ALL I WANT(ALBUM)
TTITLE11=PRINCE - TE AMO CORAZON(RADIO VERSION)
TTITLE12=JUANES - LA CAMISA NEGRA(FULL PHATT REMIX)
EXTD=
EXTT0=
EXTT1=
EXTT2=
EXTT3=
EXTT4=
EXTT5=
EXTT6=
EXTT7=
EXTT8=
EXTT9=
EXTT10=
EXTT11=
EXTT12=
PLAYORDER=
